<?xml version="1.0" encoding="UTF-8" standalone="no"?>
<!-- Created with Inkscape (http://www.inkscape.org/) -->

<svg
   xmlns:dc="http://purl.org/dc/elements/1.1/"
   xmlns:cc="http://creativecommons.org/ns#"
   xmlns:rdf="http://www.w3.org/1999/02/22-rdf-syntax-ns#"
   xmlns:svg="http://www.w3.org/2000/svg"
   xmlns="http://www.w3.org/2000/svg"
   xmlns:xlink="http://www.w3.org/1999/xlink"
   version="1.1"
   width="168.95541"
   height="220.2"
   viewBox="0 0 168.95541 220.2"
   id="Layer_1"
   xml:space="preserve"><metadata
   id="metadata48"><rdf:RDF><cc:Work
       rdf:about=""><dc:format>image/svg+xml</dc:format><dc:type
         rdf:resource="http://purl.org/dc/dcmitype/StillImage" /><dc:title></dc:title></cc:Work></rdf:RDF></metadata><defs
   id="defs46"><radialGradient
     cx="807.55658"
     cy="282.41989"
     r="87.093903"
     id="radialGradient3048"
     xlink:href="#SVGID_1_"
     gradientUnits="userSpaceOnUse" /></defs>

<g
   transform="translate(-723.07969,-176.324)"
   id="g3025"><g
     id="g3">
	<path
   d="m 889.69,211.846 c -0.609,-6.301 -7.699,-6.662 -9.312,-6.662 -0.211,0 -0.326,0.008 -0.326,0.008 -1.457,0.025 -2.881,0.039 -4.293,0.039 -47.258,0 -66.727,-14.039 -68.16,-15.119 v -0.07 c 0,0 -0.014,0.014 -0.037,0.035 -0.035,-0.021 -0.053,-0.035 -0.053,-0.035 l 0.004,0.07 c -1.434,1.08 -20.904,15.119 -68.16,15.119 -1.408,0 -2.83,-0.014 -4.291,-0.039 0,0 -0.115,-0.008 -0.324,-0.008 -1.619,0 -8.705,0.361 -9.314,6.662 -0.686,7.115 3.904,80.115 2.523,115.236 -1.379,35.121 12.398,41.318 33.744,47.514 20.646,5.998 29.699,5.873 42.105,19.256 1.121,1.43 2.449,2.672 3.691,2.672 1.133,0 2.268,-0.67 3.451,-2.262 12.604,-13.791 21.633,-13.609 42.482,-19.666 21.35,-6.195 35.129,-12.393 33.744,-47.514 -1.374,-35.121 3.216,-108.121 2.526,-115.236 z"
   id="path5"
   style="fill:#414042" />
	<path
   d="m 891.962,198.732 c -0.627,-6.475 -7.91,-6.846 -9.572,-6.846 -0.217,0 -0.334,0.008 -0.334,0.008 -1.496,0.025 -2.963,0.039 -4.41,0.039 -48.566,0 -68.572,-14.428 -70.045,-15.537 v -0.072 c 0,0 -0.016,0.014 -0.039,0.035 -0.035,-0.021 -0.057,-0.035 -0.057,-0.035 l 0.006,0.072 c -1.473,1.109 -21.482,15.537 -70.043,15.537 -1.447,0 -2.912,-0.014 -4.41,-0.039 0,0 -0.119,-0.008 -0.334,-0.008 -1.664,0 -8.945,0.371 -9.572,6.846 -0.705,7.314 4.012,82.33 2.594,118.422 -1.416,36.092 12.742,42.463 34.676,48.83 21.219,6.162 30.521,6.033 43.271,19.785 1.152,1.471 2.518,2.746 3.793,2.746 1.164,0 2.332,-0.689 3.549,-2.324 12.949,-14.17 22.229,-13.984 43.656,-20.207 21.939,-6.367 36.098,-12.738 34.678,-48.83 -1.415,-36.092 3.302,-111.107 2.593,-118.422 z"
   id="path7"
   style="fill:#ffffff" />
	<radialGradient
   cx="807.55658"
   cy="282.41989"
   r="87.093903"
   id="SVGID_1_"
   gradientUnits="userSpaceOnUse">
		<stop
   id="stop10"
   style="stop-color:#ef4136;stop-opacity:1"
   offset="0.44170001" />
		<stop
   id="stop12"
   style="stop-color:#be1e2d;stop-opacity:1"
   offset="1" />
	</radialGradient>
	<path
   d="m 881.586,317.699 c -0.896,-22.992 0.621,-60.754 1.73,-88.328 0.514,-12.729 1.047,-25.869 0.922,-29.189 -0.443,-0.145 -1.141,-0.268 -1.834,-0.268 l -0.191,0.014 -0.018,-0.01 c -1.52,0.027 -3.057,0.039 -4.553,0.039 -38.512,0 -60.332,-8.885 -69.59,-13.91 h -0.992 c -9.264,5.027 -31.084,13.91 -69.594,13.91 -1.492,0 -3.023,-0.012 -4.545,-0.039 l -0.238,-0.004 h -0.004 c -0.682,0.004 -1.363,0.129 -1.807,0.268 -0.119,3.311 0.408,16.457 0.922,29.189 1.107,27.574 2.631,65.336 1.732,88.328 -0.764,19.4 3.418,26.469 6.629,30.098 4.441,5.021 11.309,7.727 22.438,10.953 4.072,1.186 7.779,2.15 11.053,3.004 13.182,3.436 22.898,5.969 33.912,17.039 10.959,-11.053 20.275,-13.48 33.92,-17.045 3.27,-0.854 6.977,-1.812 11.043,-2.998 11.125,-3.227 17.996,-5.932 22.434,-10.953 3.213,-3.629 7.397,-10.697 6.631,-30.098 z"
   id="path14"
   style="fill:url(#radialGradient3048)" />
</g><g
     id="g16">
	<g
   id="g18">
		<circle
   cx="807.53699"
   cy="234.83"
   r="9.3859997"
   id="circle20"
   style="fill:#ffffff" />
		<path
   d="m 816.575,319.546 c 0,2.177 -1.765,3.941 -3.941,3.941 h -10.192 c -2.178,0 -3.942,-1.765 -3.942,-3.941 v -52.608 c 0,-2.176 1.765,-3.941 3.942,-3.941 h 10.192 c 2.177,0 3.941,1.766 3.941,3.941 v 52.608 z"
   id="path22"
   style="fill:#ffffff" />
		<path
   d="m 827.004,277.121 c 0,2.178 -1.765,3.941 -3.941,3.941 h -31.05 c -2.178,0 -3.942,-1.764 -3.942,-3.941 V 250.59 c 0,-2.176 1.765,-3.941 3.942,-3.941 h 31.05 c 2.177,0 3.941,1.766 3.941,3.941 v 26.531 z"
   id="path24"
   style="fill:#ffffff" />
	</g>
	<g
   id="g26">
		<g
   id="g28">
			<circle
   cx="847.70898"
   cy="242.864"
   r="7.3000002"
   id="circle30"
   style="fill:#ffffff" />
			<path
   d="m 854.739,310.302 c 0,1.693 -1.373,3.066 -3.065,3.066 h -7.929 c -1.693,0 -3.065,-1.373 -3.065,-3.066 v -42.464 c 0,-1.693 1.372,-3.066 3.065,-3.066 h 7.929 c 1.692,0 3.065,1.373 3.065,3.066 v 42.464 z"
   id="path32"
   style="fill:#ffffff" />
			<path
   d="m 862.851,275.758 c 0,1.693 -1.373,3.066 -3.066,3.066 h -24.15 c -1.693,0 -3.065,-1.373 -3.065,-3.066 v -20.636 c 0,-1.692 1.372,-3.065 3.065,-3.065 h 24.15 c 1.693,0 3.066,1.373 3.066,3.065 v 20.636 z"
   id="path34"
   style="fill:#ffffff" />
		</g>
		<g
   id="g36">
			<circle
   cx="767.40601"
   cy="242.86301"
   r="7.3000002"
   id="circle38"
   style="fill:#ffffff" />
			<path
   d="m 774.436,310.302 c 0,1.693 -1.372,3.066 -3.065,3.066 h -7.929 c -1.692,0 -3.065,-1.373 -3.065,-3.066 v -42.464 c 0,-1.693 1.373,-3.066 3.065,-3.066 h 7.929 c 1.693,0 3.065,1.373 3.065,3.066 v 42.464 z"
   id="path40"
   style="fill:#ffffff" />
			<path
   d="m 782.547,275.758 c 0,1.693 -1.372,3.066 -3.065,3.066 H 755.33 c -1.692,0 -3.065,-1.373 -3.065,-3.066 v -20.636 c 0,-1.692 1.373,-3.065 3.065,-3.065 h 24.151 c 1.693,0 3.065,1.373 3.065,3.065 v 20.636 z"
   id="path42"
   style="fill:#ffffff" />
		</g>
	</g>
</g></g>
</svg>